<?xml version="1.0" encoding="UTF-8" standalone="no"?> <svg id="Layer_1" data-name="Layer 1" xmlns="http://www.w3.org/2000/svg" viewBox="0 0 128 128"><defs><style>.cls-1{fill:#2d3e50;}.cls-2{fill:#1d75b8;}</style></defs><title>b</title><path class="cls-1" d="M37.85491,80.93629l-.54631-.0851-8.45294-1.31713c.00993-.36932.01172-.74061-.011-1.11635l-1.88146-19.953A12.66726,12.66726,0,0,0,1.67475,59.99191L3.55626,79.945a12.66415,12.66415,0,0,0,8.26316,11.11746,7.14794,7.14794,0,0,0,3.72777.78907l16.65788.68494v15.15686a4.87195,4.87195,0,1,0,9.7439,0V85.71773A4.8391,4.8391,0,0,0,37.85491,80.93629Z"/><circle class="cls-1" cx="15.2597" cy="30.33257" r="12.01164"/><path class="cls-1" d="M114.44417,46.58412A12.66724,12.66724,0,0,0,101.0368,58.46473l-1.88146,19.953c-.02272.37574-.02093.747-.011,1.11635L90.6914,80.85119l-.54631.0851A4.8391,4.8391,0,0,0,86.051,85.71773v21.97557a4.87195,4.87195,0,1,0,9.7439,0V92.53643l16.65788-.68494a7.14794,7.14794,0,0,0,3.72777-.78907A12.66415,12.66415,0,0,0,124.44374,79.945l1.88152-19.953A12.66724,12.66724,0,0,0,114.44417,46.58412Z"/><circle class="cls-1" cx="112.7403" cy="30.33257" r="12.01164"/><path class="cls-1" d="M91.18187,71.2712A4.87422,4.87422,0,0,0,86.30766,66.397H41.69234a4.87421,4.87421,0,1,0,0,9.74842h5.28653v36.41984H81.02113V76.14541h5.28653A4.87422,4.87422,0,0,0,91.18187,71.2712Z"/><path class="cls-2" d="M47.35889,38.7001a16.85729,16.85729,0,0,0,2.60868,6.28381c-.19245.242-.3849.484-.57319.72948-.516.66644-1.02447,1.33961-1.51107,2.03549l3.86342,3.86253c.69582-.48577,1.369-.99419,2.03549-1.51023.24538-.18823.48743-.38068.72948-.57313A16.86133,16.86133,0,0,0,60.788,52.135c.03443.30426.0697.60929.11008.91355.10586.83618.22183,1.67158.37063,2.50782h5.46268c.14874-.83624.2656-1.67164.37146-2.50782.04038-.30426.07482-.60929.11014-.91355a16.86337,16.86337,0,0,0,6.27537-2.607c.24205.19245.48493.3849.73032.57313.66561.516,1.33877,1.02447,2.03549,1.51023l3.86259-3.86253c-.48577-.69588-.99419-1.369-1.51107-2.03549-.18829-.24627-.38074-.48832-.57236-.73038a16.86107,16.86107,0,0,0,2.60618-6.27537c.3042-.03533.60929-.06976.91438-.11014.83534-.10586,1.67158-.22183,2.50692-.37057V32.76419c-.83534-.14874-1.67158-.26554-2.50692-.37146-.30509-.04032-.61018-.07482-.91438-.11008a16.85859,16.85859,0,0,0-2.61118-6.28132q.28868-.36183.57313-.72865c.5177-.66478,1.02786-1.33711,1.51529-2.03127l-3.86259-3.86259c-.69416.48749-1.36649.99758-2.03127,1.51529q-.36682.28368-.72865.57319a16.86176,16.86176,0,0,0-6.28887-2.6129q-.05165-.4563-.10925-.91266c-.10419-.8354-.2185-1.67158-.36474-2.507H61.26869c-.14541.8354-.25971,1.67158-.36474,2.507q-.058.4563-.10842.91266a16.8519,16.8519,0,0,0-6.2897,2.6129q-.36183-.29-.72865-.57319c-.66478-.5177-1.33628-1.0278-2.03043-1.51529l-3.86342,3.86259c.48827.69416.99842,1.36649,1.51529,2.03127q.28484.36557.57313.72782a16.86631,16.86631,0,0,0-2.61284,6.2897q-.4563.05165-.91183.10925c-.83624.10419-1.67164.2185-2.50782.36474v5.46274c.83618.14535,1.67158.25965,2.50782.36474Q46.90337,38.64966,47.35889,38.7001Zm5.32239-6.88644a11.80061,11.80061,0,0,1,.71349-1.717,11.9766,11.9766,0,0,1,5.20642-5.20636A11.7199,11.7199,0,0,1,60.319,24.176a11.91856,11.91856,0,0,1,7.36293.00083,11.70642,11.70642,0,0,1,1.717.71355,11.97691,11.97691,0,0,1,5.20642,5.20636,11.86383,11.86383,0,0,1,.00589,10.786,11.93291,11.93291,0,0,1-6.91832,5.92829,11.86965,11.86965,0,0,1-9.08078-.70427,11.98024,11.98024,0,0,1-5.22319-5.224,11.69031,11.69031,0,0,1-.7076-1.70607,11.91047,11.91047,0,0,1,0-7.36293Z"/><polygon class="cls-2" points="64.635 28.037 65.027 26.829 64 26.083 62.973 26.829 63.365 28.037 64.635 28.037"/><polygon class="cls-2" points="72.056 32.046 72.189 30.783 71.028 30.267 70.179 31.211 70.814 32.31 72.056 32.046"/><polygon class="cls-2" points="70.841 38.698 70.207 39.799 71.058 40.742 72.218 40.224 72.084 38.961 70.841 38.698"/><polygon class="cls-2" points="63.421 43.021 63.03 44.23 64.059 44.974 65.085 44.226 64.691 43.019 63.421 43.021"/><polygon class="cls-2" points="55.993 39.025 55.863 40.288 57.024 40.802 57.872 39.856 57.234 38.758 55.993 39.025"/><polygon class="cls-2" points="57.197 32.37 57.829 31.269 56.977 30.327 55.818 30.847 55.954 32.11 57.197 32.37"/><circle class="cls-2" cx="64.00001" cy="35.49555" r="4.25032"/></svg>