<?xml version="1.0" encoding="UTF-8" standalone="no"?> <svg id="Layer_1" data-name="Layer 1" xmlns="http://www.w3.org/2000/svg" viewBox="0 0 128 128"><defs><style>.cls-1{fill:#2d3e50;}.cls-2{fill:#1d75b8;}</style></defs><title>a</title><path class="cls-1" d="M90.04694,105.02311a19.7883,19.7883,0,0,0,3.07389-10.047A16.96237,16.96237,0,0,0,64.16692,82.982L64,83.1535l-.16693-.17154A16.962,16.962,0,0,0,34.8792,94.97615a19.7883,19.7883,0,0,0,3.07389,10.047H18.44339s.26427-14.77135,1.76644-23.5294a9.35556,9.35556,0,0,1,5.03505-6.783c8.758-4.36281,27.97565-10.81193,27.97565-10.81193V57.55167l-.53783-.40336a18.36386,18.36386,0,0,1-6.9684-11.665l-.10665-.67689h-.52391a7.0945,7.0945,0,0,1-6.565-4.4138,7.77485,7.77485,0,0,1-.96437-3.74153,7.109,7.109,0,0,1,.50537-2.62879,3.68134,3.68134,0,0,1,1.42336-2.29035l1.77108-1.07563-.44046-1.92406c-3.19908-13.96,7.61285-26.53376,22.1385-26.88149.35237-.00925.70009-.00925,1.04782-.00464.34773-.00461.69545-.00461,1.04779.00464C79.57344,2.19847,90.39,14.77221,87.1863,28.73223l-.44043,1.92406L88.517,31.73193a3.66178,3.66178,0,0,1,1.42333,2.29035,7.109,7.109,0,0,1,.50537,2.62879,7.72319,7.72319,0,0,1-.96437,3.74153,7.09447,7.09447,0,0,1-6.565,4.4138H82.397l-.11127.67689a18.34437,18.34437,0,0,1-6.96842,11.665l-.53319.40336v6.34714s19.213,6.44913,27.971,10.81193a9.344,9.344,0,0,1,5.03505,6.783c1.5022,8.758,1.76644,23.5294,1.76644,23.5294Z"/><path class="cls-2" d="M85.36665,85.76957a13.017,13.017,0,0,0-18.4109,0L64.00043,88.7249l-2.95532-2.95532A13.01884,13.01884,0,0,0,38.82082,94.975c0,4.206,2.22534,7.92147,4.65062,11.19753a106.88305,106.88305,0,0,0,8.64937,10.29886,72.80477,72.80477,0,0,0,10.14682,8.95553,2.4216,2.4216,0,0,0,3.46558,0A72.80477,72.80477,0,0,0,75.88,116.47141a106.88305,106.88305,0,0,0,8.64937-10.29886C86.9547,102.89649,89.18,99.181,89.18,94.975A12.97914,12.97914,0,0,0,85.36665,85.76957Z"/></svg>