<?xml version="1.0" encoding="UTF-8" standalone="no"?> <svg id="Layer_1" data-name="Layer 1" xmlns="http://www.w3.org/2000/svg" viewBox="0 0 128 128"><defs><style>.cls-1{fill:#2d3e50;}.cls-2{fill:#1d75b8;}</style></defs><title>b</title><path class="cls-1" d="M114.59,52.71743a4.4772,4.4772,0,0,0-4.62006-4.32l-14.48.31-14.73-4.48-.56-.17h-.01a6.73478,6.73478,0,0,0-1.12-.23c-.17-.02-.34-.03-.51-.04-1.97-.26-3.95-.49005-5.92-.75a1.98405,1.98405,0,0,0-.85.06l-.23-.08-4.41,4.41-2.37006,2.37-.78.78-.78-.78L60.85,47.4274l-4.41-4.41-.23.08a1.98405,1.98405,0,0,0-.85-.06c-1.97.25995-3.95.49-5.92.75-.17.00995-.34.02-.51.04a6.73478,6.73478,0,0,0-1.12.23H47.8l-.56.17-14.73,4.48-14.48-.31a4.46961,4.46961,0,0,0-.64,8.91l15.38,1.71a3.41655,3.41655,0,0,0,.64,0l.79-.1,12.96-2.56995v41.9a16.755,16.755,0,0,0,2.13,8.21,16.85216,16.85216,0,0,0,29.42,0,16.755,16.755,0,0,0,2.13-8.21v-41.9L93.8,58.91739l.79.1a3.41655,3.41655,0,0,0,.64,0l15.38-1.71A4.50085,4.50085,0,0,0,114.59,52.71743Z"/><path class="cls-1" d="M54.99962,31.54971a9.40114,9.40114,0,0,0,18.45889,0L74.897,24.15334A9.906,9.906,0,0,0,65.082,12.91257H63.37617A9.906,9.906,0,0,0,53.5611,24.15334Z"/><path class="cls-2" d="M6.0556,83.80038a1.427,1.427,0,0,0,1.915-.63916c2.99512-6.00684,6.88477-13.77783,8.84668-17.64844,1.97852,3.90234,5.90918,11.75879,8.84668,17.647a1.45826,1.45826,0,0,0,1.91406.6416,1.42587,1.42587,0,0,0,.64063-1.91455l-.16406-.32764c-.59766-1.19824-2.73926-5.48828-4.86426-9.73047-1.46484-2.9209-2.63477-5.24854-3.47852-6.918-.50293-.99414-.89453-1.76318-1.16406-2.28857-.14648-.28223-.26172-.50488-.3418-.65625a1.47348,1.47348,0,0,0-2.77832.00244l-.34082.65527c-.26953.52344-.66016,1.29248-1.16406,2.28662-.84375,1.66992-2.01367,3.99756-3.47852,6.91846C8.1181,76.47226,5.7724,81.17294,5.41693,81.88583a1.42661,1.42661,0,0,0,.63867,1.91455ZM27.735,82.0383l.00024-.00012-.00024.00018Z"/><path class="cls-2" d="M2.99518,89.88876a8.67952,8.67952,0,0,0,8.46094,6.90381H22.18365a8.67741,8.67741,0,0,0,8.45605-6.90381l.80762-3.93164H2.18756Z"/><path class="cls-2" d="M96.55267,85.95712l.80762,3.93164a8.67952,8.67952,0,0,0,8.46094,6.90381h10.72656a8.67767,8.67767,0,0,0,8.457-6.90381l.80762-3.93164Z"/><path class="cls-2" d="M112.91315,62.62362c-.14551-.2832-.26172-.50586-.34277-.65771a1.47259,1.47259,0,0,0-2.77637.00049c-.08008.15137-.19629.37354-.3418.65723-.26953.52393-.66113,1.29248-1.16406,2.28662-.84473,1.66992-2.01465,3.99756-3.47852,6.91846-2.32715,4.64355-4.67187,9.34424-5.02832,10.05908a1.42885,1.42885,0,0,0,1.27539,2.06445,1.43326,1.43326,0,0,0,.45215-.07422,1.41575,1.41575,0,0,0,.82617-.7168c3.13867-6.293,6.94531-13.897,8.84766-17.64844,1.91113,3.772,5.7168,11.37207,8.84668,17.647a1.46225,1.46225,0,0,0,1.91309.6416,1.4266,1.4266,0,0,0,.64063-1.91455l-.207-.41553c-.65332-1.30859-2.74414-5.49854-4.82129-9.64258-1.46387-2.9209-2.63379-5.249-3.47852-6.91748C113.57428,63.91659,113.18268,63.14706,112.91315,62.62362Z"/></svg>