<?xml version="1.0" encoding="UTF-8" standalone="no"?> <svg id="Layer_1" data-name="Layer 1" xmlns="http://www.w3.org/2000/svg" viewBox="0 0 128 128"><defs><style>.cls-1{fill:#1d75b8;}.cls-2{fill:#2d3e50;}</style></defs><title>b</title><rect class="cls-1" x="13.14689" y="74.23504" width="7.974" height="7.974"/><rect class="cls-1" x="27.23748" y="74.23504" width="7.97406" height="7.974"/><rect class="cls-1" x="13.14689" y="88.61874" width="7.974" height="7.974"/><rect class="cls-1" x="27.23748" y="88.61874" width="7.97406" height="7.974"/><rect class="cls-1" x="31.1074" y="46.2393" width="7.97406" height="7.97406"/><rect class="cls-1" x="45.19805" y="46.2393" width="7.974" height="7.97406"/><path class="cls-1" d="M19.58775,37.979V56.93111l-18.37622-.0007v56.96626l63.42168.00077V51.16522L64.62152,20.8689ZM41.72832,108.4786,6.63,108.47816v-46.129l18.37628.00077v-.00083l16.722.0007ZM59.203,51.16522h-.13627v57.31364l-13.726-.00019V58.73743l-20.33439-.00064V41.7167L59.203,28.72413Z"/><path class="cls-2" d="M90.46784,30.90363a8.47495,8.47495,0,0,0,16.64033,0l1.29681-6.66768a8.93008,8.93008,0,0,0-8.84813-10.13338H98.01917A8.93008,8.93008,0,0,0,89.171,24.23595Z"/><path class="cls-2" d="M126.327,58.21961l-.24183-.44687-2.15562-3.99054-5.29967-9.80548a5.3762,5.3762,0,0,0-.81775-1.14,3.16347,3.16347,0,0,0-1.67586-.91322c-2.18595-.45128-8.187-1.68065-9.5989-1.8689a1.84447,1.84447,0,0,0-.74661.05255l-.19981-.06833-3.88007,3.88007-2.08729,2.08205-.68352.68876-.152-.152V46.487l-.02529.02535-.02535-.02535v.05064l-.152.152-.68346-.68876-2.08729-2.08205L91.93444,40.0388l-.19981.06833a1.84415,1.84415,0,0,0-.74655-.05255c-1.41194.18825-7.413,1.41762-9.5989,1.8689a3.16389,3.16389,0,0,0-1.67592.91322,5.376,5.376,0,0,0-.81769,1.14L73.5959,53.7822l-2.15562,3.99054-.24189.44687a3.92568,3.92568,0,0,0-.042,3.612l7.23441,14.33223a3.68,3.68,0,0,0,4.69514,1.73505,3.51419,3.51419,0,0,0,.68876-.38378V99.08673a14.80026,14.80026,0,0,0,14.81064,14.81071c.05951,0,.11826-.00307.17739-.00447.05913.0014.11788.00447.17733.00447a14.79479,14.79479,0,0,0,14.81071-14.81071V77.51511a3.51419,3.51419,0,0,0,.68876.38378,3.6799,3.6799,0,0,0,4.69508-1.73505l7.23447-14.33223A3.92567,3.92567,0,0,0,126.327,58.21961ZM83.77468,70.04405l-3.938-9.39015,3.938-5.23135Zm29.97607,0V55.42255l3.938,5.23135Z"/></svg>